<svg width="40" height="40" viewBox="0 0 40 40" fill="none" xmlns="http://www.w3.org/2000/svg">
<path d="M9.16675 4.99984C9.16675 4.99984 12.5001 1.6665 20.8334 1.6665C29.1667 1.6665 31.6667 4.99984 31.6667 4.99984" stroke="#104499" stroke-width="2" stroke-linecap="round" stroke-linejoin="round"/>
<path d="M5.83325 13.3332C5.83325 13.3332 10.1428 6.6665 20.4285 6.6665C30.7142 6.6665 34.1666 13.3332 34.1666 13.3332" stroke="#104499" stroke-width="2" stroke-linecap="round" stroke-linejoin="round"/>
<path d="M23.7628 38.3332C16.8024 34.9998 13.593 22.4674 20.2825 21.6665C26.972 20.8656 23.7628 29.9998 28.9831 29.9998C32.1007 29.9998 33.3334 27.4998 33.3334 23.3332C33.3334 19.1665 28.9831 11.6665 20.2825 11.6665C12.4521 11.6665 4.44768 18.9998 7.23185 31.6665" stroke="#104499" stroke-width="2" stroke-linecap="round" stroke-linejoin="round"/>
<path d="M21.6667 28.3335C21.6667 28.3335 22.5001 31.6668 25.0001 33.3335C27.5001 35.0002 30.8334 34.1668 30.8334 34.1668" stroke="#104499" stroke-width="2" stroke-linecap="round" stroke-linejoin="round"/>
<path d="M28.3334 22.4636C28.3334 22.4636 26.9398 16.6665 19.9384 16.6665C12.3828 16.6665 9.02464 27.5361 14.0618 33.3332" stroke="#104499" stroke-width="2" stroke-linecap="round" stroke-linejoin="round"/>
</svg>
