<svg width="121" height="120" viewBox="0 0 121 120" fill="none" xmlns="http://www.w3.org/2000/svg">
<path d="M55.3812 59.0733C55.3812 61.7449 57.5569 63.9103 60.2416 63.9103C62.9257 63.9103 65.102 61.7449 65.102 59.0733C65.102 56.4016 62.9262 54.2362 60.2416 54.2362C57.5574 54.2362 55.3812 56.4016 55.3812 59.0733Z" fill="white"/>
<path fill-rule="evenodd" clip-rule="evenodd" d="M62.2248 103.062C61.6908 103.08 61.1545 103.089 60.6161 103.089C34.5159 103.089 13.3574 81.9302 13.3574 55.83C13.3574 29.7297 34.5159 8.57129 60.6161 8.57129C86.7164 8.57129 107.875 29.7297 107.875 55.83C107.875 65.1657 105.168 73.8692 100.496 81.1984C96.4301 75.9122 90.0413 72.5054 82.8569 72.5054C70.5744 72.5054 60.6175 82.4624 60.6175 94.7448C60.6175 97.6853 61.1882 100.493 62.2248 103.062ZM52.5476 44.7153H37.7408V47.4404H52.5476V44.7153ZM52.5476 51.4787L45.1405 67.047L37.7366 51.4787H41.0163L45.1405 60.359L49.2705 51.4787H52.5476ZM70.5575 44.7153H73.5638V66.6707H70.5575V44.7153ZM81.4527 51.4926V47.4524H78.4464V51.4926H75.9941V54.2177H78.4464V66.6823H81.4527V54.2177H82.5867C83.2678 54.2177 83.8847 53.8157 84.1866 53.1833C84.3173 52.9094 84.9912 51.4926 84.9912 51.4926H81.4527ZM52.4143 59.0733C52.4143 54.7955 55.9186 51.328 60.2416 51.328C64.5645 51.328 68.0688 54.7955 68.0688 59.0733C68.0688 63.3511 64.5645 66.8185 60.2416 66.8185C55.9186 66.8185 52.4143 63.3511 52.4143 59.0733Z" fill="white"/>
<path fill-rule="evenodd" clip-rule="evenodd" d="M82.8553 111.423C92.0672 111.423 99.5349 103.955 99.5349 94.743C99.5349 85.5312 92.0672 78.0635 82.8553 78.0635C73.6435 78.0635 66.1758 85.5312 66.1758 94.743C66.1758 103.955 73.6435 111.423 82.8553 111.423ZM89.5508 87.8655C89.5815 87.861 89.6125 87.8583 89.6435 87.8573C89.7645 87.8539 89.8849 87.8768 89.9961 87.9245C90.1073 87.9723 90.2068 88.0437 90.2877 88.1338C90.3685 88.2239 90.4287 88.3306 90.4641 88.4463C90.4995 88.5621 90.5093 88.6842 90.4927 88.8041V92.8627C90.4943 92.973 90.4739 93.0826 90.4327 93.185C90.3916 93.2874 90.3305 93.3806 90.253 93.4592C90.1755 93.5378 90.0831 93.6002 89.9813 93.6428C89.8795 93.6854 89.7702 93.7074 89.6598 93.7074C89.5494 93.7074 89.4401 93.6854 89.3383 93.6428C89.2365 93.6002 89.1441 93.5378 89.0666 93.4592C88.9892 93.3806 88.9281 93.2874 88.8869 93.185C88.8457 93.0826 88.8253 92.973 88.8269 92.8627V90.7089L81.0868 98.4487C81.0101 98.5286 80.9181 98.5924 80.8164 98.6364C80.7147 98.6804 80.6052 98.7036 80.4944 98.7047C80.3836 98.7058 80.2737 98.6848 80.1711 98.643C80.0685 98.6011 79.9753 98.5392 79.8969 98.4608C79.8186 98.3824 79.7567 98.2892 79.7148 98.1866C79.6729 98.0841 79.6519 97.9741 79.653 97.8633C79.6541 97.7525 79.6774 97.6431 79.7213 97.5414C79.7653 97.4396 79.8291 97.3477 79.9091 97.271L87.6491 89.5312H85.4953C85.3849 89.5328 85.2754 89.5124 85.173 89.4712C85.0705 89.4301 84.9773 89.369 84.8987 89.2915C84.8201 89.214 84.7577 89.1216 84.7151 89.0198C84.6725 88.918 84.6506 88.8087 84.6506 88.6983C84.6506 88.588 84.6725 88.4787 84.7151 88.3769C84.7577 88.275 84.8201 88.1827 84.8987 88.1052C84.9773 88.0277 85.0705 87.9666 85.173 87.9255C85.2754 87.8843 85.3849 87.8639 85.4953 87.8655H89.5508ZM75.5006 89.5312C75.5006 88.6208 76.2559 87.8655 77.1664 87.8655H82.1637C82.2741 87.8639 82.3837 87.8843 82.4861 87.9255C82.5885 87.9666 82.6817 88.0277 82.7603 88.1052C82.8389 88.1827 82.9014 88.275 82.944 88.3769C82.9866 88.4787 83.0085 88.588 83.0085 88.6983C83.0085 88.8087 82.9866 88.918 82.944 89.0198C82.9014 89.1216 82.8389 89.214 82.7603 89.2915C82.6817 89.369 82.5885 89.4301 82.4861 89.4712C82.3837 89.5124 82.2741 89.5328 82.1637 89.5312H77.1664V101.191H88.8269V96.1941C88.8253 96.0837 88.8457 95.9742 88.8869 95.8718C88.9281 95.7693 88.9892 95.6761 89.0666 95.5975C89.1441 95.5189 89.2365 95.4565 89.3383 95.4139C89.4401 95.3713 89.5494 95.3494 89.6598 95.3494C89.7702 95.3494 89.8795 95.3713 89.9813 95.4139C90.0831 95.4565 90.1755 95.5189 90.253 95.5975C90.3305 95.6761 90.3916 95.7693 90.4327 95.8718C90.4739 95.9742 90.4943 96.0837 90.4927 96.1941V101.191C90.4927 102.102 89.7373 102.857 88.8269 102.857H77.1664C76.2559 102.857 75.5006 102.102 75.5006 101.191V89.5312Z" fill="#104499"/>
</svg>
