<svg width="121" height="120" viewBox="0 0 121 120" fill="none" xmlns="http://www.w3.org/2000/svg">
<path d="M55.3812 59.0734C55.3812 61.7451 57.5569 63.9104 60.2416 63.9104C62.9257 63.9104 65.102 61.7451 65.102 59.0734C65.102 56.4017 62.9262 54.2364 60.2416 54.2364C57.5574 54.2364 55.3812 56.4017 55.3812 59.0734Z" fill="#161A38"/>
<path fill-rule="evenodd" clip-rule="evenodd" d="M62.2248 103.062C61.6908 103.08 61.1545 103.089 60.6161 103.089C34.5159 103.089 13.3574 81.9304 13.3574 55.8301C13.3574 29.7298 34.5159 8.57141 60.6161 8.57141C86.7164 8.57141 107.875 29.7298 107.875 55.8301C107.875 65.1659 105.168 73.8694 100.496 81.1985C96.4301 75.9123 90.0413 72.5056 82.8569 72.5056C70.5744 72.5056 60.6175 82.4625 60.6175 94.745C60.6175 97.6855 61.1882 100.493 62.2248 103.062ZM52.5476 44.7154H37.7408V47.4405H52.5476V44.7154ZM52.5476 51.4788L45.1405 67.0471L37.7366 51.4788H41.0163L45.1405 60.3591L49.2705 51.4788H52.5476ZM70.5575 44.7154H73.5638V66.6709H70.5575V44.7154ZM81.4527 51.4927V47.4526H78.4464V51.4927H75.9941V54.2179H78.4464V66.6824H81.4527V54.2179H82.5867C83.2678 54.2179 83.8847 53.8158 84.1866 53.1834C84.3173 52.9095 84.9912 51.4927 84.9912 51.4927H81.4527ZM52.4143 59.0734C52.4143 54.7956 55.9186 51.3281 60.2416 51.3281C64.5645 51.3281 68.0688 54.7956 68.0688 59.0734C68.0688 63.3512 64.5645 66.8186 60.2416 66.8186C55.9186 66.8186 52.4143 63.3512 52.4143 59.0734Z" fill="#161A38"/>
<path fill-rule="evenodd" clip-rule="evenodd" d="M82.8553 111.423C92.0672 111.423 99.5349 103.955 99.5349 94.7431C99.5349 85.5313 92.0672 78.0636 82.8553 78.0636C73.6435 78.0636 66.1758 85.5313 66.1758 94.7431C66.1758 103.955 73.6435 111.423 82.8553 111.423ZM89.5508 87.8656C89.5815 87.8612 89.6125 87.8585 89.6435 87.8575C89.7645 87.854 89.8849 87.8769 89.9961 87.9246C90.1073 87.9724 90.2068 88.0438 90.2877 88.1339C90.3685 88.224 90.4287 88.3307 90.4641 88.4464C90.4995 88.5622 90.5093 88.6843 90.4927 88.8042V92.8628C90.4943 92.9731 90.4739 93.0827 90.4327 93.1851C90.3916 93.2875 90.3305 93.3808 90.253 93.4594C90.1755 93.538 90.0831 93.6004 89.9813 93.643C89.8795 93.6856 89.7702 93.7075 89.6598 93.7075C89.5494 93.7075 89.4401 93.6856 89.3383 93.643C89.2365 93.6004 89.1441 93.538 89.0666 93.4594C88.9892 93.3808 88.9281 93.2875 88.8869 93.1851C88.8457 93.0827 88.8253 92.9731 88.8269 92.8628V90.709L81.0868 98.4488C81.0101 98.5287 80.9181 98.5926 80.8164 98.6365C80.7147 98.6805 80.6052 98.7037 80.4944 98.7048C80.3836 98.706 80.2737 98.685 80.1711 98.6431C80.0685 98.6012 79.9753 98.5393 79.8969 98.4609C79.8186 98.3826 79.7567 98.2894 79.7148 98.1868C79.6729 98.0842 79.6519 97.9743 79.653 97.8635C79.6541 97.7527 79.6774 97.6432 79.7213 97.5415C79.7653 97.4398 79.8291 97.3478 79.9091 97.2711L87.6491 89.5313H85.4953C85.3849 89.5329 85.2754 89.5125 85.173 89.4713C85.0705 89.4302 84.9773 89.3691 84.8987 89.2916C84.8201 89.2141 84.7577 89.1218 84.7151 89.0199C84.6725 88.9181 84.6506 88.8088 84.6506 88.6985C84.6506 88.5881 84.6725 88.4788 84.7151 88.377C84.7577 88.2752 84.8201 88.1828 84.8987 88.1053C84.9773 88.0278 85.0705 87.9667 85.173 87.9256C85.2754 87.8844 85.3849 87.864 85.4953 87.8656H89.5508ZM75.5006 89.5313C75.5006 88.621 76.2559 87.8656 77.1664 87.8656H82.1637C82.2741 87.864 82.3837 87.8844 82.4861 87.9256C82.5885 87.9667 82.6817 88.0278 82.7603 88.1053C82.8389 88.1828 82.9014 88.2752 82.944 88.377C82.9866 88.4788 83.0085 88.5881 83.0085 88.6985C83.0085 88.8088 82.9866 88.9181 82.944 89.0199C82.9014 89.1218 82.8389 89.2141 82.7603 89.2916C82.6817 89.3691 82.5885 89.4302 82.4861 89.4713C82.3837 89.5125 82.2741 89.5329 82.1637 89.5313H77.1664V101.191H88.8269V96.1942C88.8253 96.0839 88.8457 95.9743 88.8869 95.8719C88.9281 95.7695 88.9892 95.6762 89.0666 95.5976C89.1441 95.5191 89.2365 95.4566 89.3383 95.414C89.4401 95.3714 89.5494 95.3495 89.6598 95.3495C89.7702 95.3495 89.8795 95.3714 89.9813 95.414C90.0831 95.4566 90.1755 95.5191 90.253 95.5976C90.3305 95.6762 90.3916 95.7695 90.4327 95.8719C90.4739 95.9743 90.4943 96.0839 90.4927 96.1942V101.191C90.4927 102.102 89.7373 102.857 88.8269 102.857H77.1664C76.2559 102.857 75.5006 102.102 75.5006 101.191V89.5313Z" fill="#1742AF"/>
</svg>
