<svg width="24" height="24" viewBox="0 0 24 24" fill="none" xmlns="http://www.w3.org/2000/svg">
<path d="M4.06297 12C5.03808 14.5176 7.64399 17 12.0004 17C16.3568 17 18.9627 14.5176 19.9378 12C18.9627 9.48237 16.3568 7 12.0004 7C7.64399 7 5.03808 9.48238 4.06297 12ZM2.0517 11.6838C3.17782 8.30541 6.53917 5 12.0004 5C17.4616 5 20.8229 8.30541 21.9491 11.6838L22.0545 12L21.9491 12.3162C20.8229 15.6946 17.4616 19 12.0004 19C6.53917 19 3.17782 15.6946 2.0517 12.3162L1.94629 12L2.0517 11.6838ZM12.0004 10C10.8958 10 10.0004 10.8954 10.0004 12C10.0004 13.1046 10.8958 14 12.0004 14C13.105 14 14.0004 13.1046 14.0004 12C14.0004 10.8954 13.105 10 12.0004 10ZM8.00038 12C8.00038 9.79086 9.79124 8 12.0004 8C14.2095 8 16.0004 9.79086 16.0004 12C16.0004 14.2091 14.2095 16 12.0004 16C9.79124 16 8.00038 14.2091 8.00038 12Z" fill="#1D1E22"/>
</svg>
