<svg width="24" height="24" viewBox="0 0 24 24" fill="none" xmlns="http://www.w3.org/2000/svg">
<path d="M10.3836 3.96855C11.0743 2.67715 12.9257 2.67715 13.6164 3.96855L13.8712 4.44476C14.2835 5.21559 15.1827 5.58805 16.0192 5.33453L16.5361 5.17791C17.9377 4.75317 19.2468 6.06233 18.8221 7.46391L18.6655 7.98075C18.412 8.81734 18.7844 9.71655 19.5552 10.1288L20.0314 10.3836C21.3229 11.0743 21.3229 12.9257 20.0314 13.6164L19.5552 13.8712C18.7844 14.2835 18.412 15.1827 18.6655 16.0192L18.8221 16.5361C19.2468 17.9377 17.9377 19.2468 16.5361 18.8221L16.0193 18.6655C15.1827 18.412 14.2835 18.7844 13.8712 19.5552L13.6164 20.0314C12.9257 21.3229 11.0743 21.3229 10.3836 20.0314L10.1288 19.5552C9.71655 18.7844 8.81734 18.412 7.98075 18.6655L7.46391 18.8221C6.06233 19.2468 4.75317 17.9377 5.17791 16.5361L5.33453 16.0193C5.58805 15.1827 5.21559 14.2835 4.44477 13.8712L3.96855 13.6164C2.67715 12.9257 2.67715 11.0743 3.96855 10.3836L4.44476 10.1288C5.21559 9.71655 5.58805 8.81734 5.33453 7.98075L5.17791 7.46391C4.75318 6.06233 6.06233 4.75317 7.46391 5.17791L7.98075 5.33453C8.81734 5.58805 9.71655 5.21559 10.1288 4.44477L10.3836 3.96855Z" stroke="none" stroke-width="2"/>
<circle cx="12" cy="12" r="3" stroke="none" stroke-width="2"/>
</svg>
